<svg xmlns="http://www.w3.org/2000/svg" viewBox="0 0 16 16">
  <!-- Antenna ball -->
  <circle cx="8" cy="1.5" r="1" fill="#C5C5C5"/>
  <!-- Antenna stem -->
  <rect x="7.5" y="2.4" width="1" height="1.6" fill="#C5C5C5"/>
  <!-- Left ear -->
  <circle cx="2.5" cy="8" r="1.5" fill="#C5C5C5"/>
  <!-- Right ear -->
  <circle cx="13.5" cy="8" r="1.5" fill="#C5C5C5"/>
  <!-- Robot head with heart cutout (evenodd = heart becomes transparent) -->
  <path fill-rule="evenodd" fill="#C5C5C5" d="
    M5.5 4 H10.5 Q13 4 13 6.5 V10.5 Q13 13 10.5 13 H5.5 Q3 13 3 10.5 V6.5 Q3 4 5.5 4 Z
    M8 11.5 C6.5 10.5 5 9 5 7.5 C5 6.5 5.6 6 6.5 6 C7.1 6 7.6 6.4 8 6.9 C8.4 6.4 8.9 6 9.5 6 C10.4 6 11 6.5 11 7.5 C11 9 9.5 10.5 8 11.5 Z
  "/>
</svg>
